PathFileType	4	(X/Y/Z)	c:/Users/goper/Files/vsCode/490R/osim_files/C15/C15_Static01.trc
DataRate	CameraRate	NumFrames	NumMarkers	Units                	OrigDataRate	OrigDataStartFrame	OrigNumFrames
250.00	250.00	8	36	mm	250.0	3253	3717
                Frame#	Time	LPSIS			LASIS			LTH1			LTH2			LTH3			LTH4			LLFE			LMFE			LSH1			LSH2			LSH3			LSH4			LLMAL			LMMAL			LCAL			LMTP5			LTOE			LMTP1			RPSIS			RASIS			RTH1			RTH2			RTH3			RTH4			RLFE			RMFE			RSH1			RSH2			RSH3			RSH4			RLMAL			RMMAL			RCAL			RMTP1			RTOE			RMTP5		
		X1	Y1	Z1	X2	Y2	Z2	X3	Y3	Z3	X4	Y4	Z4	X5	Y5	Z5	X6	Y6	Z6	X7	Y7	Z7	X8	Y8	Z8	X9	Y9	Z9	X10	Y10	Z10	X11	Y11	Z11	X12	Y12	Z12	X13	Y13	Z13	X14	Y14	Z14	X15	Y15	Z15	X16	Y16	Z16	X17	Y17	Z17	X18	Y18	Z18	X19	Y19	Z19	X20	Y20	Z20	X21	Y21	Z21	X22	Y22	Z22	X23	Y23	Z23	X24	Y24	Z24	X25	Y25	Z25	X26	Y26	Z26	X27	Y27	Z27	X28	Y28	Z28	X29	Y29	Z29	X30	Y30	Z30	X31	Y31	Z31	X32	Y32	Z32	X33	Y33	Z33	X34	Y34	Z34	X35	Y35	Z35	X36	Y36	Z36

3253	13.00800	-378.86658	1025.21082	445.37201	-218.98367	1002.51953	363.26306	-293.37927	625.87531	281.89706	-300.03445	580.15997	292.08035	-242.17184	626.96710	292.20782	-247.65981	581.64777	297.90186	-309.24045	500.80035	310.35849	-290.74313	475.56857	427.23593	-383.83209	397.40552	300.62531	-387.65668	354.09647	291.25540	-323.07190	390.26279	288.88284	-334.92981	347.27936	281.06796	-372.56473	88.85240	323.21564	-341.06857	104.00326	409.76801	-426.52792	58.52456	376.02914	-259.68768	36.48056	276.19797	-192.63164	57.45588	328.20331	-217.83090	38.58910	389.10510	-365.63071	1025.84473	563.39954	-204.94051	1004.75354	615.28522	-291.58557	645.78467	687.62396	-292.17471	599.56866	682.03546	-231.44643	639.45514	680.75464	-240.99635	592.50806	680.20862	-287.66873	497.42996	660.93634	-298.14008	473.24576	543.17157	-382.39148	399.65305	677.88580	-385.74997	356.73413	684.45306	-321.45673	388.46362	685.68018	-333.94400	348.54605	692.73022	-377.35245	87.41036	645.27539	-337.74612	102.38492	561.46667	-432.18472	58.40342	590.62769	-225.92500	37.92298	586.40070	-201.00092	54.63624	645.03259	-271.92734	30.95228	698.77216
3254	13.01200	-378.87787	1025.21167	445.36282	-219.02013	1002.50305	363.25467	-293.40591	625.84308	281.91116	-300.12186	580.05219	292.13748	-242.18062	626.96741	292.17950	-247.67461	581.61853	297.90869	-309.26703	500.76611	310.36920	-290.75433	475.57886	427.23053	-383.83673	397.37305	300.61847	-387.65479	354.11255	291.23132	-323.08542	390.23795	288.88916	-334.94318	347.26831	281.07092	-372.55762	88.85117	323.20758	-341.06345	103.97188	409.77411	-426.68704	58.41793	376.20145	-259.40305	36.75217	276.15085	-192.64597	57.41294	328.22940	-217.85538	38.52001	389.12375	-365.65820	1025.82434	563.41193	-204.97049	1004.74323	615.26709	-291.61343	645.76843	687.64185	-292.22415	599.51898	682.03333	-231.48035	639.44226	680.76154	-240.99707	592.48578	680.19244	-287.66760	497.39215	660.98718	-298.14807	473.24356	543.18359	-382.40460	399.64667	677.89575	-385.76715	356.70963	684.45831	-321.44629	388.44351	685.67944	-333.96313	348.50974	692.73425	-377.35068	87.39899	645.31885	-337.71661	102.38183	561.47144	-432.19492	58.41059	590.62976	-225.91534	37.88416	586.41626	-201.00072	54.60009	645.03571	-271.90738	30.93172	698.77606
3255	13.01600	-378.91083	1025.21521	445.36359	-219.04089	1002.50024	363.24234	-293.42133	625.83966	281.90817	-300.10410	580.06372	292.09329	-242.22243	626.95679	292.17380	-247.70943	581.62604	297.90857	-309.30472	500.76080	310.35757	-290.77509	475.58539	427.21442	-383.85641	397.36304	300.61957	-387.66849	354.10663	291.21469	-323.14487	390.22583	288.88281	-334.96350	347.25705	281.07590	-372.59982	88.85939	323.14691	-341.09515	103.94989	409.79410	-426.74536	58.40898	376.17245	-259.41165	36.73986	276.15469	-192.65160	57.41658	328.22983	-217.89159	38.48317	389.14539	-365.70755	1025.81958	563.42188	-205.02695	1004.73297	615.26062	-291.67145	645.75165	687.65430	-292.28568	599.50482	682.06006	-231.51595	639.43140	680.76196	-241.04721	592.48932	680.21808	-287.73669	497.33463	660.99646	-298.15024	473.24719	543.19324	-382.42746	399.62793	677.91174	-385.77161	356.68219	684.50220	-321.51447	388.41824	685.68188	-333.99585	348.50052	692.75195	-377.38934	87.36213	645.30194	-337.63525	102.43922	561.43597	-432.18549	58.38795	590.64551	-225.95432	37.83492	586.45959	-201.05333	54.57297	645.05908	-271.94070	30.91105	698.78461
3256	13.02000	-378.92639	1025.19836	445.35208	-219.07243	1002.49500	363.23361	-293.41299	625.83179	281.90573	-300.23187	579.99036	292.15399	-242.21745	626.95685	292.17136	-247.71765	581.60590	297.89618	-309.32751	500.75961	310.36090	-290.77765	475.59668	427.20129	-383.91788	397.31973	300.64224	-387.70404	354.09531	291.22949	-323.13461	390.22632	288.87286	-334.96671	347.24643	281.06561	-372.60443	88.84850	323.14398	-341.10880	103.92862	409.79889	-426.76245	58.38780	376.15143	-259.38837	36.72512	276.15823	-192.64551	57.38931	328.23315	-217.92567	38.46099	389.13644	-365.76855	1025.81592	563.42157	-205.09534	1004.73395	615.25018	-291.74927	645.73682	687.64709	-292.35663	599.50073	682.05524	-231.57695	639.42523	680.77020	-241.08191	592.46191	680.22540	-287.82077	497.29483	660.95605	-298.16397	473.23154	543.20947	-382.46521	399.63019	677.91486	-385.79221	356.68829	684.47241	-321.58270	388.38434	685.68591	-334.03943	348.47061	692.75494	-377.44647	87.33022	645.32312	-337.63864	102.42924	561.43317	-432.19769	58.37451	590.67444	-225.95242	37.83064	586.43433	-201.08440	54.51770	645.04694	-271.96576	30.89910	698.79559
3257	13.02400	-378.98749	1025.20959	445.37851	-219.11021	1002.49670	363.22830	-293.46848	625.82263	281.90253	-300.19824	580.02667	292.12976	-242.26277	626.95941	292.16696	-247.77170	581.60956	297.88797	-309.38116	500.75150	310.35458	-290.81509	475.58582	427.20886	-383.96729	397.31265	300.67828	-387.73181	354.06894	291.25052	-323.17538	390.21271	288.87585	-334.98315	347.26187	281.07175	-372.61374	88.82523	323.16061	-341.15436	103.92585	409.80002	-426.77597	58.34644	376.19061	-259.38620	36.71362	276.16199	-192.63892	57.41710	328.21014	-217.89854	38.46991	389.13007	-365.83603	1025.83154	563.40814	-205.14085	1004.74396	615.23444	-291.78796	645.74353	687.65942	-292.40778	599.51129	682.05219	-231.57985	639.43787	680.76141	-241.12260	592.47931	680.20850	-287.85730	497.33450	660.95905	-298.19614	473.22357	543.20502	-382.48807	399.63443	677.91516	-385.78687	356.72037	684.48145	-321.58157	388.40808	685.67603	-334.04514	348.49484	692.74878	-377.46338	87.32180	645.30103	-337.63702	102.42820	561.44299	-432.22571	58.38771	590.67285	-225.96207	37.85783	586.43555	-201.09328	54.54869	645.03522	-271.99588	30.88746	698.78632
3258	13.02800	-378.95148	1025.15393	445.39005	-219.13734	1002.49695	363.22006	-293.52237	625.79492	281.90756	-301.94141	578.74457	293.82327	-242.27661	626.95361	292.15332	-247.78331	581.59393	297.88004	-309.42755	500.72824	310.36508	-290.81927	475.60876	427.21274	-384.03278	397.25061	300.70718	-387.74826	354.04150	291.24774	-323.18500	390.21698	288.86447	-335.01956	347.23712	281.05991	-372.59613	88.80920	323.15286	-341.12216	103.93327	409.78351	-426.77377	58.29021	376.19904	-259.41000	36.70453	276.15314	-192.62479	57.43760	328.20801	-217.87633	38.50820	389.11771	-365.87070	1025.83801	563.37665	-205.16002	1004.77203	615.19525	-291.80197	645.74030	687.63416	-292.38321	599.52283	682.05640	-231.57840	639.47382	680.75299	-241.11411	592.50446	680.19507	-287.84763	497.39825	660.93359	-298.22849	473.19302	543.20520	-382.48218	399.61240	677.89087	-385.82394	356.73410	684.45618	-321.60114	388.42169	685.65027	-334.03375	348.51312	692.72815	-377.46097	87.32818	645.29028	-337.66858	102.41009	561.43494	-432.20782	58.36053	590.65033	-225.91194	37.90380	586.40546	-201.05341	54.57098	645.02234	-271.97800	30.90719	698.78119
3259	13.03200	-378.96005	1025.11633	445.37231	-219.15562	1002.51276	363.18729	-293.56445	625.79358	281.91077	-302.04410	578.75665	293.86542	-242.29825	626.99207	292.14209	-247.81519	581.61646	297.84995	-309.44522	500.73627	310.35104	-290.81284	475.60028	427.22394	-384.04553	397.27066	300.72037	-387.77386	354.03479	291.27530	-323.22217	390.23703	288.84418	-335.04788	347.23764	281.05182	-372.61002	88.79791	323.16422	-341.13107	103.94897	409.77341	-426.72659	58.25697	376.23807	-259.42999	36.70250	276.15170	-192.61977	57.47496	328.17560	-217.85974	38.55780	389.09644	-365.85727	1025.82385	563.36487	-205.20398	1004.78973	615.16919	-291.82446	645.75323	687.60144	-292.39880	599.52332	682.01990	-231.61305	639.49615	680.74329	-241.13260	592.54120	680.17883	-287.79916	497.43710	660.93317	-298.27325	473.18039	543.20245	-382.49728	399.62259	677.86981	-385.81046	356.75510	684.42035	-321.54309	388.46658	685.63104	-334.00201	348.54382	692.70959	-377.44098	87.32811	645.25470	-337.66348	102.40974	561.43140	-432.18967	58.37209	590.63721	-225.87970	37.95436	586.37427	-201.01854	54.61007	645.01208	-271.97958	30.88480	698.76947
3260	13.03600	-378.96082	1025.09985	445.37332	-219.18811	1002.50983	363.19250	-293.56406	625.78741	281.90164	-302.05841	578.76880	293.85379	-242.32953	626.96899	292.14691	-247.82605	581.62604	297.85788	-309.48392	500.73941	310.35934	-290.81998	475.58765	427.22931	-384.07758	397.26962	300.73578	-387.81735	354.02396	291.30298	-323.22903	390.22614	288.84763	-335.05505	347.24710	281.05740	-372.58658	88.77795	323.23337	-341.11963	103.94112	409.76569	-426.73044	58.22373	376.25134	-259.70163	36.41606	276.18442	-192.62895	57.48430	328.17822	-217.83197	38.56987	389.10977	-365.87436	1025.81042	563.34058	-205.24513	1004.80231	615.16022	-291.82718	645.75079	687.61371	-292.44470	599.53485	682.01532	-231.63014	639.51099	680.74426	-241.15839	592.53265	680.19574	-287.82687	497.42258	660.92926	-298.30890	473.16422	543.18579	-382.52875	399.61865	677.84875	-385.84439	356.75659	684.41254	-321.58997	388.45807	685.62427	-334.02621	348.54843	692.70953	-377.45700	87.32488	645.25128	-337.66562	102.41143	561.43390	-432.20721	58.35486	590.62134	-225.88289	37.97453	586.36487	-201.14722	54.50530	644.95148	-271.97690	30.87449	698.77625
